<?xml version="1.0" encoding="UTF-8"?>
<svg id="Layer_1" data-name="Layer 1" xmlns="http://www.w3.org/2000/svg" viewBox="0 0 1920 1080">
  <defs>
    <style>
      .cls-1 {
        fill: #000;
      }

      .cls-1, .cls-2, .cls-3 {
        stroke-width: 0px;
      }

      .cls-2 {
        fill: #f1a035;
      }

      .cls-3 {
        fill: #fff;
      }
    </style>
  </defs>
  <rect class="cls-1" x="0" width="1920" height="1080"/>
  <g>
    <g>
      <polygon class="cls-3" points="788.4 493.53 800.61 493.53 800.61 586.46 787.89 586.46 787.89 516.86 788.53 520.95 765.65 573.55 756.57 573.55 733.69 522.23 734.33 516.86 734.33 586.46 721.61 586.46 721.61 493.53 733.82 493.53 761.11 554.89 788.4 493.53"/>
      <path class="cls-3" d="M823.51,493.53h13.04v92.93h-13.04v-92.93ZM829.84,493.53h53.37v12.4h-53.37v-12.4ZM829.84,534.12h46.34v12.4h-46.34v-12.4ZM829.84,574.06h53.37v12.4h-53.37v-12.4Z"/>
      <path class="cls-3" d="M964.46,536.42v16.23c0,6.9-1.34,12.99-4.03,18.25-2.68,5.26-6.49,9.33-11.41,12.21-4.92,2.88-10.62,4.31-17.1,4.31s-12.32-1.35-17.29-4.06c-4.96-2.71-8.81-6.53-11.54-11.47-2.73-4.94-4.09-10.67-4.09-17.19v-27.42c0-6.9,1.34-12.97,4.03-18.21,2.68-5.24,6.49-9.3,11.41-12.18,4.92-2.88,10.62-4.31,17.1-4.31,5.32,0,10.24,1.14,14.73,3.42,4.5,2.28,8.26,5.51,11.28,9.68,3.03,4.18,5.07,9.01,6.14,14.51h-14.12c-.77-3.11-2.07-5.78-3.9-8.02-1.83-2.24-3.98-3.94-6.46-5.11-2.47-1.17-5.03-1.76-7.67-1.76-3.84,0-7.2.92-10.1,2.75-2.9,1.83-5.14,4.4-6.71,7.7-1.58,3.3-2.36,7.15-2.36,11.54v27.42c0,4.01.81,7.51,2.43,10.51,1.62,3.01,3.91,5.34,6.87,7,2.96,1.66,6.38,2.49,10.26,2.49s7.2-.86,10.1-2.59c2.9-1.72,5.13-4.23,6.71-7.51,1.57-3.28,2.36-7.18,2.36-11.7v-4.03h-18.85v-12.46h32.21Z"/>
      <path class="cls-3" d="M1010.2,493.53h11.12l34.26,92.93h-14.06l-25.76-74.97-25.76,74.97h-14.06l34.26-92.93ZM991.73,553.68h48.89v12.4h-48.89v-12.4Z"/>
    </g>
    <g>
      <path class="cls-2" d="M1066.87,493.53h66.85v14.64h-66.85v-14.64ZM1092.69,501.14h15.21v85.32h-15.21v-85.32Z"/>
      <path class="cls-2" d="M1147.63,493.47h15.27v92.99h-15.27v-92.99ZM1153.96,533.48h32.02c2.13,0,4.02-.52,5.66-1.57,1.64-1.04,2.91-2.52,3.8-4.44.89-1.92,1.36-4.15,1.41-6.71,0-2.51-.45-4.73-1.34-6.65-.89-1.92-2.16-3.4-3.8-4.44-1.64-1.04-3.55-1.57-5.72-1.57h-32.02v-14.64h32.47c5.24,0,9.84,1.13,13.8,3.39,3.96,2.26,7.04,5.45,9.24,9.59,2.19,4.13,3.29,8.9,3.29,14.32s-1.1,10.25-3.29,14.38c-2.2,4.13-5.28,7.33-9.27,9.59-3.98,2.26-8.58,3.39-13.77,3.39h-32.47v-14.64ZM1176.39,545.24l15.85-2.94,24.41,44.16h-18.34l-21.92-41.23Z"/>
      <path class="cls-2" d="M1264.75,493.53h11.12l34.9,92.93h-16.43l-24.03-69.22-24.03,69.22h-16.43l34.9-92.93ZM1246.28,554.19h48.89v14.64h-48.89v-14.64Z"/>
      <path class="cls-2" d="M1326.42,493.54h15.27v92.93h-15.27v-92.93ZM1335.24,571.83h21.67c6.3,0,11.2-1.58,14.67-4.73,3.47-3.15,5.21-7.63,5.21-13.42v-27.35c0-5.79-1.74-10.27-5.21-13.42-3.47-3.15-8.36-4.73-14.67-4.73h-21.67v-14.64h21.28c7.58,0,14.07,1.3,19.46,3.9,5.39,2.6,9.49,6.39,12.3,11.38,2.81,4.99,4.22,10.99,4.22,18.02v26.33c0,6.86-1.39,12.78-4.15,17.77-2.77,4.98-6.85,8.82-12.24,11.5-5.39,2.68-11.94,4.03-19.65,4.03h-21.22v-14.64Z"/>
      <path class="cls-2" d="M1412.6,493.53h15.27v92.93h-15.27v-92.93ZM1418.92,493.53h54.65v14.64h-54.65v-14.64ZM1418.92,533.03h47.62v14.57h-47.62v-14.57ZM1418.92,571.83h54.65v14.64h-54.65v-14.64Z"/>
      <path class="cls-2" d="M1491.3,493.47h15.27v92.99h-15.27v-92.99ZM1497.62,533.48h32.02c2.13,0,4.02-.52,5.66-1.57,1.64-1.04,2.91-2.52,3.8-4.44.89-1.92,1.36-4.15,1.41-6.71,0-2.51-.45-4.73-1.34-6.65-.89-1.92-2.16-3.4-3.8-4.44-1.64-1.04-3.55-1.57-5.72-1.57h-32.02v-14.64h32.47c5.24,0,9.84,1.13,13.8,3.39,3.96,2.26,7.04,5.45,9.24,9.59,2.19,4.13,3.29,8.9,3.29,14.32s-1.1,10.25-3.29,14.38c-2.2,4.13-5.28,7.33-9.27,9.59-3.98,2.26-8.58,3.39-13.77,3.39h-32.47v-14.64ZM1520.06,545.24l15.85-2.94,24.41,44.16h-18.34l-21.92-41.23Z"/>
    </g>
    <path class="cls-3" d="M658.42,534.01l-9.47-9.84c-.42-.42-.98-.66-1.55-.66h-5.52c-.76,0-1.47-.33-1.97-.91l-10.78-12.49-2.41-2.75c-6.9-7.83-14.3-15.21-22.16-22.08,0,0-4.05-3.75-10.16-7.7-6.12-3.95-14.29-8.09-22.52-8.9,0,0-3.56-.7-9.34-.69-7.62.04-15.18,1.36-22.36,3.88-7.36,2.59-21.77,7.88-31.05,12.86-.37.2-.76.36-1.16.49l-28.27,9.14-47.69,14.42c-.47.14-.91.39-1.25.75-4.54,4.54-37.99,36.44-58.22,12.25,0,0,19-1.08,18.21-21.59,0,0-1.25-7.53,2.62-10.95l.14-.2c1.74-2.44,1.47-5.76-.63-7.91l-.09-.07c-1.8-1.83-4.48-2.4-6.84-1.48-9.11,3.57-30.27,14.06-25.58,33.49.14.6.14,1.24-.01,1.84-.73,2.93-2.01,12.75,10.97,20.75,7.13,4.38,13.73,5.42,19.89,5.68,11.94.5,21.6-3.38,27.47-6.51l-31.12,66.89c-.1.22-.16.43-.16.66v6.48c0,.85.69,1.54,1.54,1.54h31.86c2.06,0,3.72-1.67,3.72-3.72v-15.36c0-.39.13-.75.36-1.06,3.35-4.37,7.57-8.81,12.91-12.79,25.41-18.94,57.07-13.21,66.13-11.2.36.07.62.39.62.76v11.56c0,.63.17,1.25.5,1.78l11.48,18.31c.27.43.42.93.42,1.45v7.99c0,2.14,1.74,3.88,3.88,3.88h21.88c1.72,0,3.13-1.41,3.13-3.13v-4.28c0-.37-.1-.75-.3-1.08l-5.75-9.82c-4.74-8.09-2.79-18.44,4.6-24.22,7.86-6.15,21.2-12.03,43.41-12.06,1.29,0,2.37.99,2.57,2.26.78,4.63,5.62,16.04,33.33,26.56,1.81.68,3.82-.2,4.57-1.98l14.5-35.08c.19-.46.5-.85.92-1.11l14.11-8.81c1.84-1.15,2.16-3.68.65-5.23ZM638.52,537.85l-6.61,2.8c-.27.12-.47.35-.55.63-3.44,13.09-7.62,21.72-10.12,26.14-1.16,2.07-3.84,2.75-5.86,1.48-4.6-2.86-8.06-6.34-10.68-9.86-5.16-6.96-7.88-15.42-7.88-24.07v-9.49c0-.27-.23-.5-.52-.5h-7.88c-.26,0-.49.19-.5.46l-1.02,9.8c-.1.98-.79,1.78-1.74,2.03l-21.13,5.56c-1.75.47-3.48-.83-3.48-2.66v-5.72c0-.27-.23-.5-.52-.47-25.04,1.44-35.95,37.25-38.16,45.66-.17.62-1.01.72-1.32.16l-3.21-5.76c-.29-.5-.43-1.06-.43-1.62v-36.94c0-.17-.13-.3-.29-.3h-4.58c-.1,0-.2.06-.24.14l-5.5,9.27c-.17.3-.49.49-.83.49h-30.61c-1.14,0-2.06-.92-2.06-2.04v-9.57c0-.22-.16-.37-.36-.37h-7c-.16,0-.29.09-.34.23-6.3,15.18-41.03,36.33-42.31,37.11-.03.01-.06.03-.07.03l-.42.13c-.29.09-.55-.2-.42-.47l21.27-46.97c.88-1.95,2.57-3.43,4.64-4.04l59.22-16.87c.42-.12.83.19.83.62v4.69c0,.43.34.79.79.79h3.94c.26,0,.52-.14.66-.36,10.68-16.23,31.48-22.13,31.48-22.13,40.75-11.8,62.31,22.12,62.31,22.12l23.3,26.04c.14.16.3.27.5.34l7.7,3.1c.17.07.19.32,0,.4Z"/>
    <path class="cls-2" d="M638.52,537.85l-6.61,2.8c-.27.12-.47.35-.55.63-3.44,13.09-7.62,21.72-10.12,26.14-1.16,2.07-3.84,2.75-5.86,1.48-4.6-2.86-8.06-6.34-10.68-9.86-5.16-6.96-7.88-15.42-7.88-24.07v-9.49c0-.27-.23-.5-.52-.5h-7.88c-.26,0-.49.19-.5.46l-1.02,9.8c-.1.98-.79,1.78-1.74,2.03l-21.13,5.56c-1.75.47-3.48-.83-3.48-2.66v-5.72c0-.27-.23-.5-.52-.47-25.04,1.44-35.95,37.25-38.16,45.66-.17.62-1.01.72-1.32.16l-3.21-5.76c-.29-.5-.43-1.06-.43-1.62v-36.94c0-.17-.13-.3-.29-.3h-4.58c-.1,0-.2.06-.24.14l-5.5,9.27c-.17.3-.49.49-.83.49h-30.61c-1.14,0-2.06-.92-2.06-2.04v-9.57c0-.22-.16-.37-.36-.37h-7c-.16,0-.29.09-.34.23-6.3,15.18-41.03,36.33-42.31,37.11-.03.01-.06.03-.07.03l-.42.13c-.29.09-.55-.2-.42-.47l21.27-46.97c.88-1.95,2.57-3.43,4.64-4.04l59.22-16.87c.42-.12.83.19.83.62v4.69c0,.43.34.79.79.79h3.94c.26,0,.52-.14.66-.36,10.68-16.23,31.48-22.13,31.48-22.13,40.75-11.8,62.31,22.12,62.31,22.12l23.3,26.04c.14.16.3.27.5.34l7.7,3.1c.17.07.19.32,0,.4Z"/>
    <path class="cls-3" d="M439.53,581.57v26.58c0,1.12.91,2.03,2.03,2.03h30.89c1.32,0,2.38-1.07,2.38-2.38v-5.38c0-.29-.07-.57-.2-.83l-5.04-9.69c-.3-.57-.29-1.26.01-1.83l12.02-22.37c.13-.25-.06-.55-.34-.54-4.05.2-26.38,1.79-41.2,13.27-.35.27-.56.7-.56,1.14Z"/>
    <path class="cls-3" d="M549.4,602.07v6.3c0,2,1.62,3.63,3.63,3.63h18.01c1.44,0,2.61-1.17,2.61-2.61v-8.62c0-.53-.18-1.04-.51-1.45l-8.49-10.51c-1.51-1.87-1.45-4.55.14-6.35l18.07-20.45c.61-.69.1-1.78-.83-1.75-6.45.24-20.69,2.66-28.63,7.28,0,0-8.75,5.1-12.05,12.1-.97,2.06-.97,4.04-.97,4.04,0,1.58.42,3.14,1.23,4.5l7.48,12.68c.22.36.33.78.33,1.2Z"/>
  </g>
</svg>